<?xml version="1.0" encoding="utf-8"?>
<!-- Generator: Adobe Illustrator 19.2.1, SVG Export Plug-In . SVG Version: 6.00 Build 0)  -->
<svg version="1.1" id="Capa_1" xmlns="http://www.w3.org/2000/svg" xmlns:xlink="http://www.w3.org/1999/xlink" x="0px" y="0px"
	 viewBox="0 0 220 81" style="enable-background:new 0 0 220 81;" xml:space="preserve">
<style type="text/css">
	.st0{fill:#63AEB3;}
	.st1{fill:#D88A2B;}
	.st2{fill:#41495A;}
</style>
<g>
	<ellipse class="st0" cx="20.7" cy="29.1" rx="9" ry="8.9"/>
	<ellipse class="st0" cx="54.6" cy="14.2" rx="9" ry="8.9"/>
	<polygon class="st0" points="66.6,24.9 47,24.9 40.1,49.7 49.7,39.3 40.8,50.4 48.1,49.8 41,51.2 49.6,58.9 40.3,51.8 40.9,64.4 
		39.4,51.9 31.1,61.4 38.8,51.4 29.8,52.4 38.6,50.5 29.2,43.3 39,49.7 36.9,40.3 9.9,40.3 4,77 22.3,76.9 24.6,50.9 31.5,67.1 
		48.7,67.2 55,50.9 56.7,77 75.5,77 	"/>
</g>
<g>
	<path class="st1" d="M96.5,42.6H86c0-4.6,0-9.4,0-14h10.5v2.6h-7.8v3.2h7.6v2.5h-7.6v3.2h7.8V42.6z"/>
	<path class="st1" d="M108,28.6h2.9v0.2l-4.7,6.8l4.9,7v0.1h-3l-3.6-5.3l-3.6,5.3h-3v-0.1l4.9-7l-4.7-6.8v-0.2h2.9l3.5,5.2L108,28.6
		z"/>
	<path class="st1" d="M125,40.9c-1.4,1.4-3.3,2.1-5.4,2.1c-5.2,0-7.4-3.6-7.4-7.2c0-3.7,2.4-7.4,7.4-7.4c1.9,0,3.7,0.7,5.1,2.2
		l-1.8,1.7c-1-0.9-2.2-1.4-3.4-1.4c-3.4,0-4.9,2.6-4.8,4.9c0,2.3,1.4,4.7,4.8,4.7c1.2,0,2.6-0.5,3.5-1.4L125,40.9z"/>
	<path class="st1" d="M137,42.6h-10.5c0-4.6,0-9.4,0-14H137v2.6h-7.9v3.2h7.6v2.5h-7.6v3.2h7.8L137,42.6L137,42.6z"/>
	<path class="st1" d="M141.6,28.6v11.6h7.2v2.5H139V28.6H141.6z"/>
	<path class="st1" d="M161.1,42.6h-10.5c0-4.6,0-9.4,0-14h10.5v2.6h-7.8v3.2h7.6v2.5h-7.6v3.2h7.8V42.6z"/>
	<path class="st1" d="M172.8,28.6h2.6v14.1h-1.6l0,0l-7.4-9.4v9.4h-2.6V28.6h2.2l6.9,8.7L172.8,28.6L172.8,28.6z"/>
	<path class="st1" d="M190.2,40.9c-1.4,1.4-3.3,2.1-5.4,2.1c-5.2,0-7.4-3.6-7.4-7.2c0-3.7,2.4-7.4,7.4-7.4c1.9,0,3.7,0.7,5.1,2.2
		l-1.8,1.7c-1-0.9-2.2-1.4-3.4-1.4c-3.4,0-4.9,2.6-4.8,4.9c0,2.3,1.4,4.7,4.8,4.7c1.2,0,2.6-0.5,3.5-1.4L190.2,40.9z"/>
	<path class="st1" d="M191.7,42.6V28.6h2.6v14.1H191.7z"/>
	<path class="st1" d="M206.7,40h-7.4l-1.2,2.6h-2.8l6.3-14h2.9l6.3,14H208L206.7,40z M203.2,31.5l-2.6,6h5.2L203.2,31.5z"/>
</g>
<g>
	<path class="st2" d="M86,65.9V46.7h13.8v3.5H89.7v5.2h9.6v3.4h-9.6v7.1H86z"/>
	<path class="st2" d="M116,62.3H106l-1.7,3.6h-3.9l8.6-19.2h3.9l8.6,19.2h-3.9L116,62.3z M111,50.7l-3.6,8.2h7.1L111,50.7z"/>
	<path class="st2" d="M139.7,52l-6.2,8.3h-0.7l-6.2-8.4v14H123V46.7h4.2l6,8.2l6-8.2h4.2v19.2h-3.6V52z"/>
	<path class="st2" d="M146.7,65.9V46.7h3.6v19.2H146.7z"/>
	<path class="st2" d="M157.3,46.7v15.8h9.9v3.4h-13.5V46.7C153.8,46.7,157.3,46.7,157.3,46.7z"/>
	<path class="st2" d="M169.7,65.9V46.7h3.6v19.2H169.7z"/>
	<path class="st2" d="M190.4,62.3h-10.1l-1.7,3.6h-3.9l8.6-19.2h3.9l8.6,19.2H192L190.4,62.3z M185.4,50.7l-3.6,8.2h7.1L185.4,50.7z
		"/>
	<path class="st2" d="M214.7,65.9h-4.3l-5.6-6.4h-3.5v6.4h-3.6V46.6c3,0,6.1,0,9.1,0c4.6,0,7,3,7,6.4c0,2.6-1.2,5.3-4.9,6.1l5.8,6.6
		V65.9z M201.2,50.1v6.2h5.5c2.3,0,3.3-1.5,3.3-3c0-1.5-1-3-3.3-3L201.2,50.1L201.2,50.1z"/>
</g>
</svg>
